PathFileType	4	(X/Y/Z)	Patient4_TMGait_0pt3_01_left_13.trc.trc
DataRate	CameraRate	NumFrames	NumMarkers	Units	OrigDataRate	OrigDataStartFrame	OrigNumFrames
54.687500000000	54.687500000000	4	33	mm	54.687500000000	1	       141
Frame#	Time	Sacral			L.Shoulder			Chest			R.Shoulder			Neck			R.ASIS			L.ASIS			R.Thigh.Superior			R.Thigh.Lateral			R.Thigh.Inferior			R.Patella			L.Thigh.Superior			L.Thigh.Lateral			L.Thigh.Inferior			L.Patella			L.Shank.Superior			L.Shank.Lateral			L.Shank.Inferior			R.Shank.Superior			R.Shank.Lateral			R.Shank.Inferior			R.Heel			R.Midfoot.Superior			R.Midfoot.Lateral			R.Toe			L.Heel			L.Midfoot.Lateral			L.Midfoot.Superior			L.Toe			L.Elbow			L.Wrist			R.Elbow			R.Wrist			
		X1	Y1	Z1	X2	Y2	Z2	X3	Y3	Z3	X4	Y4	Z4	X5	Y5	Z5	X6	Y6	Z6	X7	Y7	Z7	X8	Y8	Z8	X9	Y9	Z9	X10	Y10	Z10	X11	Y11	Z11	X12	Y12	Z12	X13	Y13	Z13	X14	Y14	Z14	X15	Y15	Z15	X16	Y16	Z16	X17	Y17	Z17	X18	Y18	Z18	X19	Y19	Z19	X20	Y20	Z20	X21	Y21	Z21	X22	Y22	Z22	X23	Y23	Z23	X24	Y24	Z24	X25	Y25	Z25	X26	Y26	Z26	X27	Y27	Z27	X28	Y28	Z28	X29	Y29	Z29	X30	Y30	Z30	X31	Y31	Z31	X32	Y32	Z32	X33	Y33	Z33	

1	24.100000000000	739.398393956102	990.283925398721	545.818875410294	931.464084915727	1425.951040347289	388.652603542250	1003.009532415347	1361.196292259418	567.207206169070	885.464837129177	1432.440246190570	720.728485537385	888.405719212625	1488.017230060889	542.270323743493	957.480581772114	942.125931366018	692.814556960087	973.201522662207	954.225975556823	419.293799362600	1010.481330409241	739.410903211374	660.337448979490	927.522010155463	623.254257770098	704.914393409675	1014.698058302584	576.065857157924	632.854875699960	1016.109879661034	481.928906971504	636.865312350353	1032.410185370537	743.641678972595	454.235041758715	972.438083463470	623.054328047243	373.341396238754	1053.049287439787	544.090974711645	450.175653096231	1047.946560333810	453.983753816564	440.122901866728	971.766815373937	401.637549023788	419.062030012948	832.050870153347	386.285253951469	352.555571436617	792.472038809483	257.949545021883	395.594308970529	974.723493285562	394.900825815303	634.917647684569	885.772287802734	298.701232159074	682.475288719250	922.394468912584	201.511111666515	620.674092725526	774.713292303535	46.334479797817	570.715125360295	941.163502070944	97.601247180520	631.370954030614	846.880647127492	38.518009959557	656.115079634382	1054.287821502809	39.957083498457	676.449336551125	593.784449876173	234.646513346303	412.016155486156	644.473850550677	176.941402459611	334.782622795663	746.284664313202	156.795732558109	363.749736734517	795.142761171166	29.675856786049	337.108911957313	984.265810897914	1071.653313052980	286.002494081913	1167.180463181612	884.252604591953	315.090113942738	822.129052895841	1094.907966535528	849.191178851835	1022.476775572806	938.073718769284	899.719151879313	
2	24.118285714286	737.162405364066	989.214591754905	549.037011102588	929.482174983325	1424.189965832198	389.623679587868	1002.606234095028	1359.364670854015	567.507150674227	887.078706201926	1431.124466448009	722.318944790355	888.406075589412	1486.745456965330	543.651997215290	956.286392269835	940.715041207544	694.448178203623	970.175226671568	952.887515902282	420.517521861098	1009.302890495342	738.172993124403	661.690601923119	926.231939520310	621.869829365655	705.880664662317	1013.224702367098	574.850869171713	633.488441878668	1014.354262275919	480.350773627755	636.994694557310	1033.423078186533	746.290677338035	456.325876415426	976.748179789277	624.196361584511	376.037809863850	1059.984092093818	547.866347220961	452.714201150630	1057.174858346738	457.333595378550	442.996575042470	981.402649232029	403.687470408930	422.256486592151	840.938387488447	387.206919132760	357.233381312592	803.249796871710	258.217615441659	400.099549912303	972.069564896500	393.464763331921	635.083483360849	882.331823769234	297.907934998108	682.782532914518	917.805142090144	200.639546764566	620.648607073973	768.923507653338	46.095244774829	570.819754052884	935.190712508582	97.174633629888	630.959710837709	841.082955016650	38.340280765756	656.232726908848	1048.517652857996	40.098661480124	676.497066270326	604.284039162744	230.525057527189	418.189683445238	656.174970706844	175.542788626671	339.867231558468	758.710771331765	158.131932915049	368.102319859071	811.089533077480	32.868939605760	339.271226204474	974.054734552739	1068.414770236389	288.309709380474	1135.928430405296	867.358860155437	314.369032388320	832.702781659658	1093.035542216025	852.633042139491	1040.866977398390	949.053790352940	899.889215761822	
3	24.136571428571	734.903143328800	988.264315551563	552.285336855614	927.426590500413	1422.485181656063	390.548642771774	1002.222714327692	1357.615352473956	567.724973291710	888.782311452387	1429.917261498600	723.856888669550	888.411630842927	1485.548991853008	544.983092053021	955.106225184596	939.342081800609	696.001444294069	967.049558875113	951.649657778663	421.679261323577	1007.997739297875	736.928944955926	662.906836044357	924.810940384738	620.525736051899	706.793595828934	1011.550075731783	573.636214438375	634.013399467930	1012.384405732509	478.797587228629	637.035073930087	1034.289589888325	749.063832911519	458.409651550732	980.985398113630	625.483695459161	378.697568722486	1066.746267469491	551.806740905231	455.260747812642	1066.286901111470	460.903773394382	445.866320105204	991.118977084023	405.837977228570	425.420850714519	850.003421841131	387.705029785690	361.836099685986	814.659616377023	257.975739384211	404.568770869801	969.207621660033	392.062510081233	635.190254857760	878.735517036670	297.134440487147	683.073758195125	913.067363934010	199.786036806486	620.609224912360	763.008366253304	45.854233242222	570.925451171629	929.093619613161	96.732295991970	630.529454011282	835.175176928571	38.167440473725	656.360769887894	1042.637299401755	40.234495937414	676.542158679363	615.623193298761	225.197321252236	424.271480435761	668.829607742292	173.118637352740	344.890330564827	772.065540619779	158.821237959802	372.432440586774	828.349612981944	35.691905856517	341.463436152467	963.264661190818	1065.296989104481	290.457855284827	1103.929235367694	851.120584187067	313.583639648036	843.667248081034	1091.313631022910	855.999588027834	1059.603247588477	960.609600017354	899.722620341511	
4	24.154857142857	732.678749473532	987.541626758491	555.481146267388	925.310426764852	1420.937825714039	391.372925198381	1001.881539257712	1356.055789720710	567.797371769178	890.591179377642	1428.921785562557	725.263832426494	888.426210109289	1484.516164577469	546.195907384154	953.981039555733	938.076308838046	697.379269315622	963.862232475993	950.613774618540	422.707134561349	1006.520179220495	735.716956016557	663.886763358249	923.199101873668	619.294951929958	707.601085193660	1009.582888174808	572.462244863813	634.366848920128	1010.094565572364	477.339447762755	636.946903713204	1034.890911698578	751.939874917664	460.407557148698	984.944455517649	626.960581016013	381.206688473534	1073.005610271485	555.870592245563	457.718630805485	1074.917669928012	464.709851906889	448.617139978126	1000.654709657943	408.094222876245	428.420378567854	859.114419701929	387.538391802556	366.158722062662	826.767573540740	256.995725448957	408.829445647925	966.076911266340	390.764805153291	635.213092910425	874.970739405244	296.419625786848	683.333682440535	908.215880804904	198.992406015385	620.553973511833	757.062434641306	45.620392467649	571.033691220012	922.979283075526	96.300128027803	630.108321928047	829.251438463709	38.004927808226	656.497667562800	1036.741945164391	40.357690507771	676.582719412469	628.054488088136	218.208494066856	430.013667363755	682.705951423293	169.237259983254	349.656661930136	786.548709599241	158.552005804561	376.585812761704	847.201778462186	37.957600643744	343.633108746963	951.871721309025	1062.509250920198	292.304400446549	1071.708973852357	836.385740647575	312.720754429233	854.948562014512	1089.904459441772	859.148610263662	1078.331979470769	972.765022580111	899.024983673099	
